<svg width="24" height="24" viewBox="0 0 24 24" xmlns="http://www.w3.org/2000/svg">
    <path d="M13.113 3a8.863 8.863 0 0 0-8.675 6.999L3.32 9.062a.5.5 0 1 0-.642.766l1.796 1.507.018.01a.52.52 0 0 0 .101.058c.015.007.029.016.044.022a.498.498 0 0 0 .154.026l.004.001a.5.5 0 0 0 .171-.03l2.204-.802a.5.5 0 1 0-.342-.94l-1.41.514A7.864 7.864 0 0 1 13.114 4c4.342 0 7.875 3.532 7.875 7.875s-3.533 7.875-7.875 7.875a7.839 7.839 0 0 1-7.521-5.533.5.5 0 0 0-.955.296 8.835 8.835 0 0 0 8.476 6.237c4.893 0 8.875-3.982 8.875-8.875C21.988 6.981 18.006 3 13.113 3" fill="#222" fill-rule="evenodd"/>
</svg>
